<?xml version="1.0" encoding="UTF-8"?>
<svg version="1.1" xmlns="http://www.w3.org/2000/svg" width="200" height="200">
<path d="M0 0 C0.73758545 0.26989746 1.4751709 0.53979492 2.23510742 0.81787109 C21.97313728 8.21360885 41.4136821 18.31581185 57.125 32.5 C57.95902344 33.22703125 58.79304687 33.9540625 59.65234375 34.703125 C62.18054358 36.93136891 64.65944692 39.2027307 67.125 41.5 C67.93710938 42.24636719 68.74921875 42.99273437 69.5859375 43.76171875 C72.20172294 46.2578547 74.66604775 48.84934533 77.125 51.5 C77.62306152 51.99612793 78.12112305 52.49225586 78.63427734 53.00341797 C85.40188733 59.86393743 88.69725635 65.7877513 89.02978516 75.56274414 C88.92476242 87.02141281 87.65957894 98.33020164 85.125 109.5 C84.85816406 110.70914063 84.59132812 111.91828125 84.31640625 113.1640625 C79.41130876 133.17686024 71.24534083 151.61320424 61.125 169.5 C60.69477539 170.26505859 60.26455078 171.03011719 59.82128906 171.81835938 C54.65054833 180.86819063 50.67259941 184.99209593 40.59375 187.81640625 C38.93906376 188.23795727 37.28276484 188.65322317 35.625 189.0625 C34.82835937 189.27068359 34.03171875 189.47886719 33.2109375 189.69335938 C19.43622144 193.13703839 5.84287784 193.84918928 -8.27954102 193.81567383 C-11.04158443 193.81252385 -13.80254178 193.83603455 -16.56445312 193.86132812 C-28.20837366 193.90251414 -39.35738315 192.90575214 -50.8197937 190.86447144 C-52.5685559 190.55434497 -54.3221121 190.27145053 -56.07641602 189.99438477 C-62.99630767 188.86203886 -69.51370225 187.7103032 -74.74609375 182.8125 C-76.71208488 180.03217285 -78.36113761 177.33086535 -79.91113281 174.31347656 C-80.88153002 172.48771404 -81.9500203 170.78163508 -83.0859375 169.0546875 C-98.73619828 145.01594043 -107.27885057 115.91392282 -109.875 87.5 C-109.9479126 86.71270508 -110.0208252 85.92541016 -110.09594727 85.11425781 C-111.4286556 68.23216232 -111.4286556 68.23216232 -105.875 60.875 C-104.23704387 59.05704869 -102.57067349 57.26423883 -100.875 55.5 C-99.46487474 53.69859674 -98.06821678 51.8865417 -96.6875 50.0625 C-93.67974942 46.32668281 -90.65121833 43.4370587 -86.875 40.5 C-86.10027344 39.72527344 -85.32554688 38.95054688 -84.52734375 38.15234375 C-68.07846748 21.70346748 -47.30991738 10.09761462 -25.875 1.5 C-24.89515137 1.10151855 -23.91530273 0.70303711 -22.90576172 0.29248047 C-14.45299763 -2.99252814 -8.58120041 -3.19567407 0 0 Z " fill="#09ADE4" transform="translate(110.875,5.5)"/>
<path d="M0 0 C2.91025457 2.11654878 3.04498676 3.25765142 3.6875 6.9375 C4.25095681 9.53224229 4.52047133 10.65004374 6.69140625 12.234375 C8.08643798 12.88027204 9.49346933 13.500752 10.91015625 14.09765625 C17.47576988 16.93252868 20.08685648 21.41311275 23.1171875 27.59765625 C24 30 24 30 24 34 C23.29875 33.88140625 22.5975 33.7628125 21.875 33.640625 C20.92625 33.51171875 19.9775 33.3828125 19 33.25 C18.071875 33.11078125 17.14375 32.9715625 16.1875 32.828125 C10.20800684 33.15054865 5.76149676 35.91031003 1.7265625 40.2421875 C0.68428359 41.44588129 -0.34942177 42.65704542 -1.375 43.875 C-8.20505867 51.60962303 -16.17039325 58.44922526 -26.875 59.3125 C-31.25847007 59.17136555 -34.2216072 58.26703568 -38 56 C-40.81236284 50.37527433 -40.22310943 44.25306619 -40.125 38.125 C-40.11597656 37.05507812 -40.10695313 35.98515625 -40.09765625 34.8828125 C-40.07419342 32.25497561 -40.04136459 29.62760594 -40 27 C-41.98 27 -43.96 27 -46 27 C-45.98428955 27.69037354 -45.9685791 28.38074707 -45.95239258 29.09204102 C-45.88966547 32.24877588 -45.85089 35.40537915 -45.8125 38.5625 C-45.78736328 39.64853516 -45.76222656 40.73457031 -45.73632812 41.85351562 C-45.68044921 47.98156973 -45.79918745 52.68023463 -49 58 C-55.58607884 60.19535961 -62.80662104 59.97636415 -69.125 57.0625 C-76.53695272 52.85764221 -82.36862911 46.69645321 -88.25 40.625 C-93.41438172 35.48111186 -97.03317897 33.8554849 -104.375 33.8125 C-106.25042946 33.86041243 -108.12574652 33.91811514 -110 34 C-110.1335166 26.79010341 -107.46187281 23.39667739 -102.5625 18.25390625 C-99.50767132 15.5669609 -96.37369343 13.92021029 -92.7421875 12.1484375 C-90.64219239 11.03721829 -90.64219239 11.03721829 -90.125 7.875 C-90.08375 6.92625 -90.0425 5.9775 -90 5 C-88.4375 3.125 -88.4375 3.125 -87 2 C-86.34 4.31 -85.68 6.62 -85 9 C-80.26557606 9.09104661 -75.82444167 8.85109138 -71.125 8.25 C-64.91527964 7.72534519 -60.28897086 8.64757806 -55 12 C-50.45654362 15.97025595 -47.34636821 20.01614131 -46 26 C-44.02 26 -42.04 26 -40 26 C-40 25.195625 -40 24.39125 -40 23.5625 C-38.25930542 17.36127554 -33.70302709 12.9035402 -28.50390625 9.2421875 C-23.23286677 7.37352468 -18.16890165 7.68516657 -12.625 7.8125 C-10.94857422 7.83280273 -10.94857422 7.83280273 -9.23828125 7.85351562 C-6.49168789 7.88872836 -3.74609711 7.93797904 -1 8 C-0.67 5.36 -0.34 2.72 0 0 Z " fill="#007B00" transform="translate(143,85)"/>
<path d="M0 0 C0.73758545 0.26989746 1.4751709 0.53979492 2.23510742 0.81787109 C21.97313728 8.21360885 41.4136821 18.31581185 57.125 32.5 C57.95902344 33.22703125 58.79304687 33.9540625 59.65234375 34.703125 C62.18054358 36.93136891 64.65944692 39.2027307 67.125 41.5 C67.93710938 42.24636719 68.74921875 42.99273437 69.5859375 43.76171875 C72.20172294 46.2578547 74.66604775 48.84934533 77.125 51.5 C77.62306152 51.99612793 78.12112305 52.49225586 78.63427734 53.00341797 C85.40188733 59.86393743 88.69725635 65.7877513 89.02978516 75.56274414 C88.92476242 87.02141281 87.65957894 98.33020164 85.125 109.5 C84.85816406 110.70914063 84.59132812 111.91828125 84.31640625 113.1640625 C79.41130876 133.17686024 71.24534083 151.61320424 61.125 169.5 C60.69477539 170.26505859 60.26455078 171.03011719 59.82128906 171.81835938 C54.65054833 180.86819063 50.67259941 184.99209593 40.59375 187.81640625 C38.93906376 188.23795727 37.28276484 188.65322317 35.625 189.0625 C34.82835937 189.27068359 34.03171875 189.47886719 33.2109375 189.69335938 C19.43622144 193.13703839 5.84287784 193.84918928 -8.27954102 193.81567383 C-11.04158443 193.81252385 -13.80254178 193.83603455 -16.56445312 193.86132812 C-28.20837366 193.90251414 -39.35738315 192.90575214 -50.8197937 190.86447144 C-52.5685559 190.55434497 -54.3221121 190.27145053 -56.07641602 189.99438477 C-62.99630767 188.86203886 -69.51370225 187.7103032 -74.74609375 182.8125 C-76.71208488 180.03217285 -78.36113761 177.33086535 -79.91113281 174.31347656 C-80.88153002 172.48771404 -81.9500203 170.78163508 -83.0859375 169.0546875 C-98.73619828 145.01594043 -107.27885057 115.91392282 -109.875 87.5 C-109.9479126 86.71270508 -110.0208252 85.92541016 -110.09594727 85.11425781 C-111.4286556 68.23216232 -111.4286556 68.23216232 -105.875 60.875 C-104.23704387 59.05704869 -102.57067349 57.26423883 -100.875 55.5 C-99.46487474 53.69859674 -98.06821678 51.8865417 -96.6875 50.0625 C-93.67974942 46.32668281 -90.65121833 43.4370587 -86.875 40.5 C-86.10027344 39.72527344 -85.32554688 38.95054688 -84.52734375 38.15234375 C-68.07846748 21.70346748 -47.30991738 10.09761462 -25.875 1.5 C-24.89515137 1.10151855 -23.91530273 0.70303711 -22.90576172 0.29248047 C-14.45299763 -2.99252814 -8.58120041 -3.19567407 0 0 Z M-22.875 4.5 C-23.61347168 4.80695801 -24.35194336 5.11391602 -25.11279297 5.43017578 C-56.35809525 18.62380542 -82.28282652 37.48732655 -102.875 64.5 C-103.46796875 65.13164063 -104.0609375 65.76328125 -104.671875 66.4140625 C-106.54985547 69.67004163 -106.36019749 72.96870133 -106.3125 76.625 C-106.30565186 77.44468262 -106.29880371 78.26436523 -106.29174805 79.10888672 C-105.86309316 96.47663401 -102.72350616 114.134332 -96.875 130.5 C-96.65086426 131.12874023 -96.42672852 131.75748047 -96.19580078 132.40527344 C-90.36842901 148.40278663 -82.41226345 163.41133553 -72.875 177.5 C-72.24335937 178.43328125 -71.61171875 179.3665625 -70.9609375 180.328125 C-66.64775845 184.81900057 -59.78954802 185.30873881 -53.875 186.5 C-52.54009521 186.777229 -52.54009521 186.777229 -51.17822266 187.06005859 C-27.5834193 191.78862855 -0.91154495 193.43236324 22.74951172 188.03466797 C24.50070022 187.64051557 26.25881357 187.27683244 28.02001953 186.93017578 C41.763128 184.8634156 41.763128 184.8634156 52.5 177.125 C53.42424059 175.27377626 54.29500866 173.39535336 55.125 171.5 C56.17111674 169.74840955 57.21817506 167.99732852 58.27905273 166.25463867 C66.86974196 151.85233461 73.93363764 135.7471627 78.125 119.5 C78.38539063 118.56027344 78.64578125 117.62054688 78.9140625 116.65234375 C79.72373471 113.61402835 80.44055463 110.56896474 81.125 107.5 C81.40601563 106.25992188 81.68703125 105.01984375 81.9765625 103.7421875 C86.32390004 83.9164605 86.32390004 83.9164605 82.42578125 64.78515625 C80.18340679 61.74444952 77.8149064 59.14890173 75.125 56.5 C73.64170952 54.79524601 72.16243998 53.0869839 70.6875 51.375 C69.17464371 49.74257087 67.65380275 48.11750462 66.125 46.5 C65.02285156 45.30117187 65.02285156 45.30117187 63.8984375 44.078125 C46.2911798 25.58756006 14.33819912 4.00614835 -11.76953125 1.1875 C-15.7855188 1.59162453 -19.1974802 2.93320164 -22.875 4.5 Z " fill="#0A0808" transform="translate(110.875,5.5)"/>
<path d="M0 0 C0.85110352 0.34901367 1.70220703 0.69802734 2.57910156 1.05761719 C24.10635807 10.1163866 42.98365965 21.5180118 59.875 37.6875 C60.68066406 38.43 61.48632812 39.1725 62.31640625 39.9375 C64.94249799 42.43619136 67.4152437 45.02491522 69.875 47.6875 C70.37306152 48.19958008 70.87112305 48.71166016 71.38427734 49.23925781 C78.37813266 56.58444252 81.88162817 62.8828543 81.8125 73.1875 C80.68032868 102.58570521 71.31775148 130.58614082 57.3125 156.25 C56.66051636 157.44484009 56.66051636 157.44484009 55.99536133 158.66381836 C54.66663169 161.03416521 53.27456073 163.35840526 51.875 165.6875 C51.39949707 166.56905762 50.92399414 167.45061523 50.43408203 168.35888672 C47.29085738 173.64596666 44.7423852 176.2350882 38.8125 178.125 C36.50933105 178.68565713 34.19596517 179.20579025 31.875 179.6875 C30.74449219 179.95949219 29.61398438 180.23148438 28.44921875 180.51171875 C14.57233538 183.73341874 0.77426076 185.09907117 -13.4375 185.0625 C-14.16812653 185.06262085 -14.89875305 185.0627417 -15.65151978 185.06286621 C-28.80451044 185.03218286 -41.52988472 183.82102053 -54.44580078 181.22119141 C-56.88422133 180.73546265 -59.32404647 180.31976947 -61.77734375 179.91796875 C-68.07192565 178.75553648 -72.43758935 177.20224136 -76.4375 172 C-77.70698654 169.91991058 -78.93252622 167.81267631 -80.125 165.6875 C-80.91339277 164.42988961 -81.70800051 163.17616032 -82.5078125 161.92578125 C-95.26794155 141.62066063 -103.2997659 119.28441286 -107.125 95.6875 C-107.33125 94.54925781 -107.5375 93.41101563 -107.75 92.23828125 C-108.33784811 88.72343941 -108.76820209 85.23340913 -109.125 81.6875 C-109.20508301 80.94564453 -109.28516602 80.20378906 -109.36767578 79.43945312 C-110.21483275 70.6261428 -110.67294705 62.97577721 -104.875 55.8125 C-103.50212961 54.23857021 -102.09263901 52.72510883 -100.63085938 51.23339844 C-99.0781644 49.6394191 -97.6075291 47.99335018 -96.140625 46.3203125 C-76.93344994 24.60255887 -52.87594356 9.48525773 -26.125 -1.3125 C-25.49110352 -1.60656738 -24.85720703 -1.90063477 -24.20410156 -2.20361328 C-15.66945257 -5.92724903 -8.24905062 -3.41885928 0 0 Z M-26.25 2.0625 C-27.1265625 2.41828125 -28.003125 2.7740625 -28.90625 3.140625 C-57.25905849 14.92044515 -92.29693983 35.87352772 -106.125 64.6875 C-106.98397827 69.51792719 -106.70846781 73.83848593 -106.125 78.6875 C-106.06505859 80.09515625 -106.06505859 80.09515625 -106.00390625 81.53125 C-104.89235865 105.51373154 -96.71450518 129.83540536 -85.125 150.6875 C-84.44641783 151.94390417 -83.76803308 153.20041499 -83.08984375 154.45703125 C-81.19605306 157.9255575 -79.16691802 161.30399122 -77.125 164.6875 C-76.66609375 165.57695312 -76.2071875 166.46640625 -75.734375 167.3828125 C-72.22165626 173.23091019 -67.89769582 174.89277835 -61.5625 176.5625 C-58.09919182 177.36845245 -54.62226989 178.04667597 -51.125 178.6875 C-50.28517578 178.84976074 -49.44535156 179.01202148 -48.58007812 179.17919922 C-27.61245111 183.09547342 -4.08987772 184.05343927 16.875 179.6875 C18.31093506 179.38900146 18.31093506 179.38900146 19.77587891 179.08447266 C23.04680856 178.38196109 26.3051065 177.63771857 29.5625 176.875 C30.60390137 176.63894043 31.64530273 176.40288086 32.71826172 176.15966797 C42.16882482 173.80825022 45.74464107 169.392691 50.70849609 161.18725586 C65.08353783 136.98560353 76.68238 109.11161008 77.875 80.6875 C77.99617187 79.44613281 78.11734375 78.20476562 78.2421875 76.92578125 C78.92404691 67.97126796 77.60786281 62.12773815 71.76171875 54.9765625 C70.80536869 53.87506713 69.84277275 52.77897303 68.875 51.6875 C68.34471191 51.07487305 67.81442383 50.46224609 67.26806641 49.83105469 C47.27914945 26.91876586 23.08073897 12.18536864 -5.09863281 1.47363281 C-6.71608412 0.84613966 -8.3117735 0.16264524 -9.8984375 -0.5390625 C-15.89340752 -2.62152577 -20.66723733 -0.22213826 -26.25 2.0625 Z " fill="#E6EFF1" transform="translate(114.125,11.3125)"/>
<path d="M0 0 C6.70165542 3.22485674 12.13281756 8.07548391 15 15 C15.59997496 17.39989984 15.84475584 19.51609345 16 22 C15.29875 21.88140625 14.5975 21.7628125 13.875 21.640625 C12.451875 21.44726562 12.451875 21.44726562 11 21.25 C9.6078125 21.04117188 9.6078125 21.04117188 8.1875 20.828125 C2.20800684 21.15054865 -2.23850324 23.91031003 -6.2734375 28.2421875 C-7.31571641 29.44588129 -8.34942177 30.65704542 -9.375 31.875 C-16.20505867 39.60962303 -24.17039325 46.44922526 -34.875 47.3125 C-39.30771584 47.15268672 -42.24983356 46.44908829 -46 44 C-47.20198116 41.27786619 -47.57250641 38.92138786 -47 36 C-46.34515625 35.26136719 -45.6903125 34.52273437 -45.015625 33.76171875 C-42.36082636 30.12423302 -42.53414029 27.01093836 -42.5625 22.6875 C-42.38886636 15.99050724 -41.86706845 11.01619868 -37 6 C-32.03815043 1.49971783 -29.18250705 0.80152736 -22.6640625 0.8203125 C-20.15933349 0.98925317 -18.13453355 1.44175785 -15.75 2.1875 C-9.85602259 3.46452844 -6.1624107 -0.56789339 0 0 Z " fill="#007505" transform="translate(151,97)"/>
<path d="M0 0 C1.9921875 1.94140625 1.9921875 1.94140625 3.875 4.5625 C14.12382354 18.0818201 28.76439162 28.55540798 46 31 C65.50559146 32.14779042 82.49098942 28.69330874 97.90234375 15.9609375 C102.48093201 11.68076747 107.09220749 7.04103166 110.43359375 1.71484375 C112 0 112 0 114.48046875 -0.390625 C115.82044922 -0.32101563 115.82044922 -0.32101563 117.1875 -0.25 C118.08855469 -0.21390625 118.98960937 -0.1778125 119.91796875 -0.140625 C120.60503906 -0.09421875 121.29210937 -0.0478125 122 0 C120.62369342 3.74436348 118.94236725 6.97950925 116.75 10.3125 C116.18796875 11.19550781 115.6259375 12.07851562 115.046875 12.98828125 C113 15 113 15 110 15.07421875 C109.01 15.04972656 108.02 15.02523437 107 15 C104.88445041 16.46893647 104.88445041 16.46893647 103.25 18.5 C102.19758577 19.69463237 101.11998343 20.86847035 100 22 C99.34 22 98.68 22 98 22 C98.99 24.475 98.99 24.475 100 27 C98.43902526 28.1063219 96.87614673 29.20995785 95.3125 30.3125 C94.44238281 30.92738281 93.57226562 31.54226562 92.67578125 32.17578125 C85.59957173 37 85.59957173 37 83 37 C82.34 36.01 81.68 35.02 81 34 C80.175 34.144375 79.35 34.28875 78.5 34.4375 C74.67313722 35.05253152 70.84783293 35.53560637 67 36 C67 37.98 67 39.96 67 42 C60.07 42 53.14 42 46 42 C46 40.35 46 38.7 46 37 C44.98679687 36.81824219 44.98679687 36.81824219 43.953125 36.6328125 C43.06109375 36.46523437 42.1690625 36.29765625 41.25 36.125 C39.92742187 35.88136719 39.92742187 35.88136719 38.578125 35.6328125 C36.13052256 35.03203736 34.19400143 34.22002883 32 33 C31.34 34.32 30.68 35.64 30 37 C25.97790677 36.39192397 22.88697522 35.11371789 19.3125 33.1875 C18.35988281 32.68605469 17.40726563 32.18460938 16.42578125 31.66796875 C13.88984346 29.92425629 12.91959785 28.91108363 12 26 C12.875 23.75 12.875 23.75 14 22 C13.4225 21.773125 12.845 21.54625 12.25 21.3125 C10 20 10 20 8.1875 17.3125 C7.465625 16.549375 6.74375 15.78625 6 15 C2.39336552 15.29636834 2.39336552 15.29636834 -1 16 C-2.34171264 14.06829319 -3.67312883 12.12943124 -5 10.1875 C-5.7425 9.10855469 -6.485 8.02960938 -7.25 6.91796875 C-9 4 -9 4 -9 1 C-5.89431818 0.07979798 -3.23090169 -0.3935384 0 0 Z " fill="#E20203" transform="translate(44,121)"/>
<path d="M0 0 C2.7710688 2.34591852 3.52059284 4.14776201 4.1875 7.6875 C4.34605469 8.49574219 4.50460938 9.30398437 4.66796875 10.13671875 C4.83232422 11.05904297 4.83232422 11.05904297 5 12 C-3.76040172 16.2656282 -3.76040172 16.2656282 -8.5 15.25 C-9.655 14.8375 -10.81 14.425 -12 14 C-17.07149455 13.39953505 -20.83950066 13.40920034 -25.4375 15.75 C-27.7175508 17.75199582 -29.40025766 19.44041225 -31 22 C-31.52400391 22.79470703 -31.52400391 22.79470703 -32.05859375 23.60546875 C-33.43393953 27.10375491 -33.25507168 30.60558184 -33.3125 34.3125 C-33.53761715 40.96963611 -34.0372068 45.16127663 -39 50 C-39.33 50 -39.66 50 -40 50 C-40 42.41 -40 34.82 -40 27 C-41.98 27 -43.96 27 -46 27 C-46 34.59 -46 42.18 -46 50 C-47.32 49.01 -48.64 48.02 -50 47 C-50 46.34 -50 45.68 -50 45 C-50.66 45 -51.32 45 -52 45 C-52.04898438 43.99839844 -52.09796875 42.99679688 -52.1484375 41.96484375 C-52.22354079 40.62237241 -52.29908526 39.2799257 -52.375 37.9375 C-52.47941406 35.97103516 -52.47941406 35.97103516 -52.5859375 33.96484375 C-53.34609633 26.68596442 -54.89449733 22.10550267 -60 17 C-65.40112031 13.60501009 -72.71341768 14.61890295 -78.75 15.625 C-83.21003944 16.13961993 -86.19614174 15.16377952 -89.9375 12.75 C-91 11 -91 11 -90.875 8 C-90.00772029 5.02646956 -89.39189062 3.8719144 -87 2 C-86.34 4.31 -85.68 6.62 -85 9 C-80.26557606 9.09104661 -75.82444167 8.85109138 -71.125 8.25 C-64.91527964 7.72534519 -60.28897086 8.64757806 -55 12 C-50.45654362 15.97025595 -47.34636821 20.01614131 -46 26 C-44.02 26 -42.04 26 -40 26 C-40 25.195625 -40 24.39125 -40 23.5625 C-38.25930542 17.36127554 -33.70302709 12.9035402 -28.50390625 9.2421875 C-23.23286677 7.37352468 -18.16890165 7.68516657 -12.625 7.8125 C-10.94857422 7.83280273 -10.94857422 7.83280273 -9.23828125 7.85351562 C-6.49168789 7.88872836 -3.74609711 7.93797904 -1 8 C-0.67 5.36 -0.34 2.72 0 0 Z " fill="#050908" transform="translate(143,85)"/>
<path d="M0 0 C1.98 0 3.96 0 6 0 C6.02505615 0.69150146 6.0501123 1.38300293 6.07592773 2.09545898 C6.19152161 5.20967866 6.31441242 8.32356789 6.4375 11.4375 C6.47681641 12.52611328 6.51613281 13.61472656 6.55664062 14.73632812 C6.61948242 16.28803711 6.61948242 16.28803711 6.68359375 17.87109375 C6.72025146 18.82943115 6.75690918 19.78776855 6.79467773 20.77514648 C6.75834424 22.97138925 6.75834424 22.97138925 8 24 C8.04063832 25.66617115 8.042721 27.33388095 8 29 C15.90329068 31.63443023 21.35507551 32.04359646 29 28.4375 C36.13598994 24.60471043 41.40224275 19.94554174 46.625 13.8125 C50.81608025 8.94178511 54.36305489 6.01311857 60.875 5.25 C62.24890621 5.15024443 63.62383557 5.06116286 65 5 C65.495 6.98 65.495 6.98 66 9 C64.93523437 9.06058594 63.87046875 9.12117188 62.7734375 9.18359375 C58.20218247 10.17261269 57.30484817 11.33022104 54.625 15.0625 C45.66095012 26.72329766 32.09854546 37.8615794 17 40 C11.98299866 40.21338384 7.0199296 40.18071747 2 40 C2.99 35.71 3.98 31.42 5 27 C4.01 27.66 3.02 28.32 2 29 C2.33 29.33 2.66 29.66 3 30 C3.04080783 31.99958364 3.04254356 34.00045254 3 36 C0.66118993 33.87380903 -0.94038762 32.00223508 -2 29 C-1.68184702 27.33036903 -1.34593536 25.66409664 -1 24 C-0.85843072 22.08957224 -0.75525298 20.17604396 -0.68359375 18.26171875 C-0.64169922 17.19501953 -0.59980469 16.12832031 -0.55664062 15.02929688 C-0.51732422 13.92650391 -0.47800781 12.82371094 -0.4375 11.6875 C-0.39431641 10.56537109 -0.35113281 9.44324219 -0.30664062 8.28710938 C-0.20085213 5.52485431 -0.09876328 2.7625137 0 0 Z " fill="#08AAE0" transform="translate(97,112)"/>
<path d="M0 0 C0.94875 0.33 1.8975 0.66 2.875 1 C2.25625 2.11375 1.6375 3.2275 1 4.375 C-0.6847879 7.6574316 -1.41669416 10.41282058 -1.875 14.0625 C-2.75031775 19.30630168 -5.18554607 21.57771506 -9.25 24.8203125 C-11.125 26 -11.125 26 -13.125 26 C-13.455 20.06 -13.785 14.12 -14.125 8 C-14.08553289 13.4596452 -14.08553289 13.4596452 -14.03491211 18.91918945 C-14.03241455 19.60198975 -14.02991699 20.28479004 -14.02734375 20.98828125 C-14.02210693 21.68477783 -14.01687012 22.38127441 -14.01147461 23.09887695 C-14.125 25 -14.125 25 -15.125 28 C-18.93545508 29.64542378 -22.01962002 30.0907652 -26.125 30 C-27.0388066 10.99282272 -27.0388066 10.99282272 -22.5625 5.41015625 C-15.71976083 -1.30242212 -9.29471377 -2.68007084 0 0 Z " fill="#007D00" transform="translate(135.125,99)"/>
<path d="M0 0 C0.66 0.33 1.32 0.66 2 1 C2.90833969 3.72501908 3.18359985 5.62233971 3.31640625 8.44921875 C3.35830078 9.29677734 3.40019531 10.14433594 3.44335938 11.01757812 C3.48267578 11.89865234 3.52199219 12.77972656 3.5625 13.6875 C3.60568359 14.58017578 3.64886719 15.47285156 3.69335938 16.39257812 C3.7993522 18.59487344 3.90017221 20.79741662 4 23 C6.64 23.66 9.28 24.32 12 25 C12.33 24.34 12.66 23.68 13 23 C13 23.99 13 24.98 13 26 C13.66 26 14.32 26 15 26 C17.3125 28.5625 17.3125 28.5625 19 32 C17.9375 35.8125 17.9375 35.8125 16 39 C9.41392116 41.19535961 2.19337896 40.97636415 -4.125 38.0625 C-9.74182978 34.89847413 -14.52245592 30.61091773 -19 26 C-19 25.67 -19 25.34 -19 25 C-18.16855469 24.87882812 -17.33710937 24.75765625 -16.48046875 24.6328125 C-15.39378906 24.46523437 -14.30710937 24.29765625 -13.1875 24.125 C-12.10855469 23.96257812 -11.02960938 23.80015625 -9.91796875 23.6328125 C-6.82678207 23.14867662 -6.82678207 23.14867662 -4 21 C-4.66 20.01 -5.32 19.02 -6 18 C-3.50638429 19.20381448 -1.31856917 20.45428722 1 22 C0.67 14.74 0.34 7.48 0 0 Z " fill="#006F02" transform="translate(78,104)"/>
<path d="M0 0 C0.33 1.32 0.66 2.64 1 4 C1.99 3.67 2.98 3.34 4 3 C6.015625 2.76171875 6.015625 2.76171875 8.25 2.6875 C8.97703125 2.65011719 9.7040625 2.61273438 10.453125 2.57421875 C17.582201 3.7660428 22.1088102 8.83728102 26.8125 13.875 C33.06261842 20.35750212 40.23905578 27.58586809 49.7421875 28.16796875 C51.29292969 28.17763672 51.29292969 28.17763672 52.875 28.1875 C53.90367188 28.20167969 54.93234375 28.21585938 55.9921875 28.23046875 C59.05463488 27.99581369 61.23248861 27.29184572 64 26 C64.99 27.98 65.98 29.96 67 32 C67 31.236875 67 30.47375 67 29.6875 C67 27.79166667 67 25.89583333 67 24 C67.99 24 68.98 24 70 24 C69.85962479 25.81293089 69.71255111 27.6253443 69.5625 29.4375 C69.44068359 30.95150391 69.44068359 30.95150391 69.31640625 32.49609375 C69 35 69 35 68 36 C71.3 36.33 74.6 36.66 78 37 C78 37.33 78 37.66 78 38 C55.62536675 38.81034889 38.72307651 34.49178719 21.8046875 18.98828125 C18.64027081 15.92311748 16.22171062 13.41385982 14.125 9.5 C12.28265221 6.76147475 12.28265221 6.76147475 9.609375 6.703125 C6.88852815 6.71713546 6.88852815 6.71713546 4.2421875 6.984375 C3.50226562 6.98953125 2.76234375 6.9946875 2 7 C0 5 0 5 -0.125 2.375 C-0.08375 1.59125 -0.0425 0.8075 0 0 Z " fill="#09A3D7" transform="translate(32,115)"/>
<path d="M0 0 C1.98 0 3.96 0 6 0 C6.02505615 0.69150146 6.0501123 1.38300293 6.07592773 2.09545898 C6.19152161 5.20967866 6.31441242 8.32356789 6.4375 11.4375 C6.47681641 12.52611328 6.51613281 13.61472656 6.55664062 14.73632812 C6.61948242 16.28803711 6.61948242 16.28803711 6.68359375 17.87109375 C6.72025146 18.82943115 6.75690918 19.78776855 6.79467773 20.77514648 C6.75834424 22.97138925 6.75834424 22.97138925 8 24 C8.42157973 28.63737703 7.76243712 31.24308551 5 35 C4.67 35 4.34 35 4 35 C4.33 32.36 4.66 29.72 5 27 C4.01 27.66 3.02 28.32 2 29 C2.33 29.33 2.66 29.66 3 30 C3.04080783 31.99958364 3.04254356 34.00045254 3 36 C0.66118993 33.87380903 -0.94038762 32.00223508 -2 29 C-1.68184702 27.33036903 -1.34593536 25.66409664 -1 24 C-0.85843072 22.08957224 -0.75525298 20.17604396 -0.68359375 18.26171875 C-0.64169922 17.19501953 -0.59980469 16.12832031 -0.55664062 15.02929688 C-0.51732422 13.92650391 -0.47800781 12.82371094 -0.4375 11.6875 C-0.39431641 10.56537109 -0.35113281 9.44324219 -0.30664062 8.28710938 C-0.20085213 5.52485431 -0.09876328 2.7625137 0 0 Z " fill="#EAE9E9" transform="translate(97,112)"/>
<path d="M0 0 C5.99013088 0.85422641 9.79008453 3.76724593 14 8 C17.06657936 12.61757447 19 16.41495908 19 22 C17.22880197 21.85866501 15.45804713 21.71176792 13.6875 21.5625 C12.70136719 21.48128906 11.71523437 21.40007812 10.69921875 21.31640625 C8 21 8 21 5 20 C7.64 19.34 10.28 18.68 13 18 C7.13949603 13.56369672 2.32431196 12.1650972 -5 12 C-4.04270084 10.87411986 -3.08412105 9.7493285 -2.125 8.625 C-1.59132812 7.99851562 -1.05765625 7.37203125 -0.5078125 6.7265625 C0.61432007 5.44163349 1.79371975 4.20628025 3 3 C2.01 2.01 1.02 1.02 0 0 Z " fill="#007407" transform="translate(148,97)"/>
<path d="M0 0 C3.22511865 1.38219371 4.36702938 2.29833 6.0625 5.3125 C6.0625 5.9725 6.0625 6.6325 6.0625 7.3125 C7.031875 7.60125 8.00125 7.89 9 8.1875 C12.0625 9.3125 12.0625 9.3125 13.0625 11.3125 C12.51078125 11.15523437 11.9590625 10.99796875 11.390625 10.8359375 C5.02311188 9.40431542 -1.00154589 9.26401024 -6.625 12.8125 C-7.74685952 13.62185757 -8.85850081 14.4468273 -9.9375 15.3125 C-7.6275 15.6425 -5.3175 15.9725 -2.9375 16.3125 C-2.9375 16.6425 -2.9375 16.9725 -2.9375 17.3125 C-6.8975 17.6425 -10.8575 17.9725 -14.9375 18.3125 C-15.07531455 10.87051436 -12.100075 7.60862621 -7.06640625 2.31640625 C-3.68841344 -0.8632457 -3.68841344 -0.8632457 0 0 Z " fill="#006E03" transform="translate(47.9375,100.6875)"/>
<path d="M0 0 C3.5704694 0.05842586 3.92877743 0.24127743 6.625 2.9375 C7.12 3.7625 7.615 4.5875 8.125 5.4375 C6.8125 8.875 6.8125 8.875 5.125 12.4375 C1.90217587 13.51177471 -0.49011153 13.5707963 -3.875 13.5625 C-4.926875 13.56507813 -5.97875 13.56765625 -7.0625 13.5703125 C-9.875 13.4375 -9.875 13.4375 -12.875 12.4375 C-13.205 11.4475 -13.535 10.4575 -13.875 9.4375 C-12.451875 9.0971875 -12.451875 9.0971875 -11 8.75 C-7.69813064 7.76237611 -7.69813064 7.76237611 -6.625 4.9375 C-6.3775 4.1125 -6.13 3.2875 -5.875 2.4375 C-3.875 0.4375 -3.875 0.4375 0 0 Z " fill="#017703" transform="translate(88.875,130.5625)"/>
<path d="M0 0 C0 0.66 0 1.32 0 2 C0.99 2.33 1.98 2.66 3 3 C0.50056796 3.48229332 -1.99948243 3.96089426 -4.5 4.4375 C-5.19609375 4.57220703 -5.8921875 4.70691406 -6.609375 4.84570312 C-7.65351563 5.04389648 -7.65351563 5.04389648 -8.71875 5.24609375 C-9.34716797 5.36654053 -9.97558594 5.4869873 -10.62304688 5.61108398 C-16.87946451 6.63475626 -22.89091421 7.14415243 -29.21875 7.09765625 C-29.96209595 7.0962413 -30.70544189 7.09482635 -31.47131348 7.09336853 C-33.81425229 7.08783109 -36.15709073 7.07529091 -38.5 7.0625 C-40.10156111 7.05747689 -41.70312373 7.05291542 -43.3046875 7.04882812 C-47.20316288 7.03788227 -51.1015645 7.02066196 -55 7 C-55.33 6.01 -55.66 5.02 -56 4 C-55.08412109 3.98018066 -54.16824219 3.96036133 -53.22460938 3.93994141 C-49.74278942 3.86064983 -46.26130285 3.77394059 -42.77978516 3.68261719 C-41.28864364 3.64493145 -39.79742963 3.60998848 -38.30615234 3.578125 C-25.51416097 3.30172816 -12.49264285 0 0 0 Z " fill="#E4E8E9" transform="translate(138,189)"/>
<path d="M0 0 C7.8573733 0.12673183 13.38114144 2.34782805 19 8 C20.10831454 10.62843402 20.11855427 12.09542045 20 15 C14.88662978 15.54786109 11.98289383 15.43032186 7.75 12.375 C4.38029393 9.5691227 2.06229172 6.86679697 0 3 C0 2.01 0 1.02 0 0 Z " fill="#E3DF23" transform="translate(70,73)"/>
<path d="M0 0 C-0.28788103 5.90156119 -2.79889064 9.13107138 -7 13 C-10.80953401 15.41011335 -13.49469742 16.3975267 -18 16 C-18.33573433 12.39085598 -18.30857109 10.49846099 -16.375 7.375 C-11.43703302 2.43703302 -7.00556295 -0.18933954 0 0 Z " fill="#DFDC25" transform="translate(127,58)"/>
<path d="M0 0 C-0.25932732 3.71702491 -0.73554645 5.66342276 -3.0625 8.625 C-7.30397308 12.05427611 -11.48059694 14.79004975 -17 15.25 C-17.99 15.12625 -17.99 15.12625 -19 15 C-19.5 12.4375 -19.5 12.4375 -19 9 C-13.93656797 2.9163242 -8.020725 -0.47180735 0 0 Z " fill="#E7E122" transform="translate(128,74)"/>
<path d="M0 0 C6.025374 0.37658588 10.25812496 2.22830169 15 6 C17.29013653 9.4352048 17.17842973 10.985331 17 15 C13.16650534 15.55905131 11.1059617 15.73863151 7.82421875 13.546875 C4.74641698 10.86856853 2.27163084 8.40744626 0 5 C-0.125 2.3125 -0.125 2.3125 0 0 Z " fill="#E5E022" transform="translate(73,58)"/>
<path d="M0 0 C0.66 0.66 1.32 1.32 2 2 C-2.45213283 7.60690478 -6.76838717 11.50487802 -13 15 C-13.99 15.66 -14.98 16.32 -16 17 C-16.5509051 11.49094901 -15.21218577 7.4237997 -12 3 C-8.31293812 -0.20652064 -4.75772391 -1.90308956 0 0 Z " fill="#007E00" transform="translate(150,98)"/>
<path d="M0 0 C0.8971875 0.7425 0.8971875 0.7425 1.8125 1.5 C-4.39370847 5.63747231 -8.26315512 6.93327393 -15.5625 6.1875 C-16.29855469 6.12626953 -17.03460938 6.06503906 -17.79296875 6.00195312 C-19.592513 5.85004355 -21.39026611 5.67716201 -23.1875 5.5 C-16.61357126 -1.43914701 -9.23410024 -4.34545893 0 0 Z " fill="#007F00" transform="translate(60.1875,111.5)"/>
<path d="M0 0 C4.18471938 0.74436713 7.41469313 2.70888009 10.61328125 5.46484375 C10.94328125 6.12484375 11.27328125 6.78484375 11.61328125 7.46484375 C2.39559478 9.94337722 -3.05062626 9.01372671 -11.38671875 4.46484375 C-8.29032546 -0.03900104 -5.10442273 -0.18905269 0 0 Z " fill="#007E00" transform="translate(150.38671875,108.53515625)"/>
<path d="M0 0 C1.875 0.1875 1.875 0.1875 4 1 C6.54056628 5.06490604 6.81240347 10.33523171 6 15 C4.48046875 16.7734375 4.48046875 16.7734375 3 18 C0.53199953 16.84826645 -1.04783565 15.95216435 -3 14 C-3.66524275 9.60248621 -3.45909208 5.93731299 -1.5 1.9375 C-1.005 1.298125 -0.51 0.65875 0 0 Z " fill="#D9D726" transform="translate(98,22)"/>
<path d="M0 0 C-0.43539396 4.93446488 -2.63296086 7.47991362 -6 11 C-9.4826807 13.54830295 -10.57434454 14 -15 14 C-15.3125 11.3125 -15.3125 11.3125 -15 8 C-10.91620211 2.98276259 -6.6600338 -0.57086004 0 0 Z " fill="#DED923" transform="translate(121,47)"/>
<path d="M0 0 C5.52288114 0.22542372 8.60396457 1.53627203 12.6875 5.30078125 C14 7 14 7 14.4375 10.375 C14.293125 11.24125 14.14875 12.1075 14 13 C10.10488087 13 8.00193734 12.84526374 4.9765625 10.29296875 C0 4.81875 0 4.81875 0 0 Z " fill="#E7E021" transform="translate(79,47)"/>
<path d="M0 0 C1.65 0 3.3 0 5 0 C5 6.93 5 13.86 5 21 C3.35 21 1.7 21 0 21 C0 14.07 0 7.14 0 0 Z " fill="#FFFFFF" transform="translate(98,113)"/>
<path d="M0 0 C0.66 0.33 1.32 0.66 2 1 C2.90672553 3.7201766 3.17003843 5.56105342 3.28125 8.37890625 C3.31863281 9.21744141 3.35601562 10.05597656 3.39453125 10.91992188 C3.46499941 12.68554067 3.53531122 14.45116571 3.60546875 16.21679688 C3.64285156 17.05404297 3.68023437 17.89128906 3.71875 18.75390625 C3.74904297 19.52033447 3.77933594 20.2867627 3.81054688 21.07641602 C3.892459 23.08274513 3.892459 23.08274513 5 25 C3.783125 24.79375 2.56625 24.5875 1.3125 24.375 C-2.39761794 23.89648656 -4.59603969 24.34664785 -8 26 C-8.99 26 -9.98 26 -11 26 C-11 26.66 -11 27.32 -11 28 C-11.66 28 -12.32 28 -13 28 C-12.67 29.32 -12.34 30.64 -12 32 C-13.16959987 31.02433888 -14.33561177 30.044375 -15.5 29.0625 C-16.47453125 28.24458984 -16.47453125 28.24458984 -17.46875 27.41015625 C-18.22671875 26.71212891 -18.22671875 26.71212891 -19 26 C-19 25.67 -19 25.34 -19 25 C-18.16855469 24.87882812 -17.33710937 24.75765625 -16.48046875 24.6328125 C-15.39378906 24.46523437 -14.30710937 24.29765625 -13.1875 24.125 C-12.10855469 23.96257812 -11.02960938 23.80015625 -9.91796875 23.6328125 C-6.82678207 23.14867662 -6.82678207 23.14867662 -4 21 C-4.66 20.01 -5.32 19.02 -6 18 C-3.50638429 19.20381448 -1.31856917 20.45428722 1 22 C0.67 14.74 0.34 7.48 0 0 Z " fill="#014800" transform="translate(78,104)"/>
<path d="M0 0 C-0.44928198 4.82978133 -1.38942693 7.67447217 -5 11 C-8.75 11.8125 -8.75 11.8125 -12 12 C-12.4375 9.375 -12.4375 9.375 -12 6 C-8.80612131 1.99411825 -5.34830727 -0.9724195 0 0 Z " fill="#DAD825" transform="translate(114,37)"/>
<path d="M0 0 C4.80668512 0.4471335 7.73263632 1.3482406 11 5 C11.3125 8.75 11.3125 8.75 11 12 C8.875 12.4375 8.875 12.4375 6 12 C2.62072005 9.19844238 0.18793406 6.47215013 -0.375 2.0625 C-0.25125 1.381875 -0.1275 0.70125 0 0 Z " fill="#DBD825" transform="translate(86,37)"/>
<path d="M0 0 C0.33 0.66 0.66 1.32 1 2 C0.21753906 2.96679688 -0.56492187 3.93359375 -1.37109375 4.9296875 C-9.38917881 14.75964028 -9.38917881 14.75964028 -11 27 C-11.66 27 -12.32 27 -13 27 C-13.82119416 19.72330729 -14.02350505 14.35056262 -9.3125 8.4375 C-6.46318852 5.25550055 -3.37785117 2.60881325 0 0 Z " fill="#EAF1F3" transform="translate(18,60)"/>
<path d="M0 0 C0.33 0 0.66 0 1 0 C1 6.6 1 13.2 1 20 C2.32 19.01 3.64 18.02 5 17 C5.66 17.33 6.32 17.66 7 18 C4.92844785 21.10732823 4.17967766 21.60911002 0.9375 23.0625 C-2.17634573 24.33266339 -2.17634573 24.33266339 -4 27 C-4.33 26.67 -4.66 26.34 -5 26 C-6.51469448 25.76807135 -8.03754562 25.58784762 -9.5625 25.4375 C-10.38878906 25.35371094 -11.21507813 25.26992187 -12.06640625 25.18359375 C-13.02353516 25.09271484 -13.02353516 25.09271484 -14 25 C-11.41073669 22.41073669 -9.97294721 22.62601957 -6.375 22.375 C-5.37210938 22.30023438 -4.36921875 22.22546875 -3.3359375 22.1484375 C-2.17964844 22.07496094 -2.17964844 22.07496094 -1 22 C-1.00523682 21.40461426 -1.01047363 20.80922852 -1.01586914 20.19580078 C-1.03661999 17.50554453 -1.04965407 14.81530511 -1.0625 12.125 C-1.07506836 10.71927734 -1.07506836 10.71927734 -1.08789062 9.28515625 C-1.09111328 8.38925781 -1.09433594 7.49335937 -1.09765625 6.5703125 C-1.10289307 5.74289551 -1.10812988 4.91547852 -1.11352539 4.06298828 C-1 2 -1 2 0 0 Z " fill="#013D00" transform="translate(121,105)"/>
<path d="M0 0 C5.24169401 6.11530967 6.35179357 11.17034859 7 19 C6.37738281 18.68675781 5.75476563 18.37351562 5.11328125 18.05078125 C2.18510032 16.58003972 2.18510032 16.58003972 -1 16 C-3.35416349 16.94992562 -5.68895182 17.94952356 -8 19 C-8.99 19 -9.98 19 -11 19 C-11 19.66 -11 20.32 -11 21 C-12.98 20.34 -14.96 19.68 -17 19 C-17 18.67 -17 18.34 -17 18 C-16.34773438 17.89042969 -15.69546875 17.78085938 -15.0234375 17.66796875 C-9.83767606 16.72718902 -5.68074165 15.51161747 -1 13 C-0.01 13 0.98 13 2 13 C2.66 13.66 3.32 14.32 4 15 C3.71640113 13.5608866 3.42278601 12.12374482 3.125 10.6875 C2.96257812 9.88699219 2.80015625 9.08648437 2.6328125 8.26171875 C2.05521001 5.74698882 2.05521001 5.74698882 0 3 C0 2.01 0 1.02 0 0 Z " fill="#013D00" transform="translate(62,100)"/>
<path d="M0 0 C0 3 0 3 -1 5.375 C-2.04707861 8.12358135 -2.16636171 10.08867007 -2 13 C-0.02 11.35 1.96 9.7 4 8 C4.66 8.33 5.32 8.66 6 9 C5.01 9.66 4.02 10.32 3 11 C3.99 12.485 3.99 12.485 5 14 C4.236875 13.979375 3.47375 13.95875 2.6875 13.9375 C-0.10185786 13.87057159 -0.10185786 13.87057159 -3 15 C-3.4640625 15.9590625 -3.4640625 15.9590625 -3.9375 16.9375 C-5.2342338 19.45468915 -6.4221737 19.96886948 -9 21 C-8.5359375 20.4740625 -8.071875 19.948125 -7.59375 19.40625 C-5.64500481 16.46402687 -5.1658899 13.95628565 -4.5 10.5 C-3.67157756 6.20009306 -2.92314669 3.31289958 0 0 Z " fill="#014300" transform="translate(137,101)"/>
<path d="M0 0 C3.68754757 0.49831724 5.60490662 1.10067643 8 4 C7.236875 4.2475 6.47375 4.495 5.6875 4.75 C2.7635955 6.10995558 1.69995644 7.31585826 0 10 C1.3303125 10.1546875 1.3303125 10.1546875 2.6875 10.3125 C6.0573702 11.01190702 8.17271538 12.08742511 11 14 C10.01 14.495 10.01 14.495 9 15 C7.66666667 14.33333333 6.33333333 13.66666667 5 13 C2.41467299 12.54935368 2.41467299 12.54935368 -0.25 12.375 C-1.14203125 12.30023438 -2.0340625 12.22546875 -2.953125 12.1484375 C-3.96632812 12.07496094 -3.96632812 12.07496094 -5 12 C-4.04270084 10.87411986 -3.08412105 9.7493285 -2.125 8.625 C-1.59132812 7.99851562 -1.05765625 7.37203125 -0.5078125 6.7265625 C0.61432007 5.44163349 1.79371975 4.20628025 3 3 C2.01 2.01 1.02 1.02 0 0 Z " fill="#024407" transform="translate(148,97)"/>
<path d="M0 0 C0.33 1.32 0.66 2.64 1 4 C1.99 3.67 2.98 3.34 4 3 C5.56118428 2.93259135 7.1250252 2.91485544 8.6875 2.9375 C9.89986328 2.95103516 9.89986328 2.95103516 11.13671875 2.96484375 C12.05904297 2.98224609 12.05904297 2.98224609 13 3 C12.67 3.99 12.34 4.98 12 6 C10.37675914 6.22162329 8.751279 6.42689803 7.125 6.625 C5.76761719 6.79902344 5.76761719 6.79902344 4.3828125 6.9765625 C3.59648438 6.98429687 2.81015625 6.99203125 2 7 C0 5 0 5 -0.125 2.375 C-0.08375 1.59125 -0.0425 0.8075 0 0 Z " fill="#0799CD" transform="translate(32,115)"/>
<path d="M0 0 C0.99 0.66 1.98 1.32 3 2 C3 2.66 3 3.32 3 4 C4.4540625 4.433125 4.4540625 4.433125 5.9375 4.875 C9 6 9 6 10 8 C9.4534375 7.83757812 8.906875 7.67515625 8.34375 7.5078125 C5.6706465 6.92864008 3.2340694 6.86748882 0.5 6.875 C-0.4384375 6.87242188 -1.376875 6.86984375 -2.34375 6.8671875 C-4.7214263 6.98607132 -6.72683096 7.32448278 -9 8 C-6.3401439 4.55783328 -3.09711714 4.00495326 1 3 C0.67 2.01 0.34 1.02 0 0 Z " fill="#014200" transform="translate(51,104)"/>
<path d="M0 0 C0 0.66 0 1.32 0 2 C2.97 2 5.94 2 9 2 C8.67 3.32 8.34 4.64 8 6 C8 5.01 8 4.02 8 3 C6.948125 3.350625 5.89625 3.70125 4.8125 4.0625 C1.18482663 4.95455083 -0.53535342 5.18787883 -4 4 C-4.66 3.34 -5.32 2.68 -6 2 C-2.25 0 -2.25 0 0 0 Z " fill="#2797A5" transform="translate(120,71)"/>
<path d="M0 0 C-1 3 -1 3 -3 4 C-5.3329866 4.04022391 -7.66706666 4.04320247 -10 4 C-10 3.34 -10 2.68 -10 2 C-10.99 1.67 -11.98 1.34 -13 1 C-8.62426048 0.40667939 -4.42471556 -0.13827236 0 0 Z " fill="#E3ECEF" transform="translate(128,191)"/>
<path d="M0 0 C0.99 0.33 1.98 0.66 3 1 C1.71451591 2.33929505 0.42141845 3.67128643 -0.875 5 C-1.59429687 5.7425 -2.31359375 6.485 -3.0546875 7.25 C-5 9 -5 9 -7 9 C-7.33 9.66 -7.66 10.32 -8 11 C-8.33 10.01 -8.66 9.02 -9 8 C-8.43410156 7.50628906 -7.86820313 7.01257813 -7.28515625 6.50390625 C-6.55167969 5.86324219 -5.81820312 5.22257813 -5.0625 4.5625 C-4.33160156 3.92441406 -3.60070312 3.28632813 -2.84765625 2.62890625 C-1.87860647 1.77458541 -0.91348825 0.91348825 0 0 Z " fill="#0795C4" transform="translate(151,135)"/>
<path d="M0 0 C2.46800047 1.15173355 4.04783565 2.04783565 6 4 C6.66 3.67 7.32 3.34 8 3 C8 4.32 8 5.64 8 7 C6.22880197 6.85866501 4.45804713 6.71176792 2.6875 6.5625 C1.70136719 6.48128906 0.71523437 6.40007812 -0.30078125 6.31640625 C-3 6 -3 6 -6 5 C-3.36 4.34 -0.72 3.68 2 3 C1.34 2.01 0.68 1.02 0 0 Z " fill="#023A15" transform="translate(159,112)"/>
<path d="M0 0 C0.33 0.99 0.66 1.98 1 3 C0.67 3.33 0.34 3.66 0 4 C-0.23287008 5.68183948 -0.41264166 7.3712416 -0.5625 9.0625 C-0.68818359 10.44115234 -0.68818359 10.44115234 -0.81640625 11.84765625 C-0.87699219 12.55792969 -0.93757812 13.26820312 -1 14 C-1.66 14 -2.32 14 -3 14 C-3.08114106 12.22992286 -3.13925505 10.45877902 -3.1875 8.6875 C-3.22230469 7.70136719 -3.25710937 6.71523437 -3.29296875 5.69921875 C-3 3 -3 3 -1.48828125 1.14453125 C-0.99714844 0.76683594 -0.50601562 0.38914062 0 0 Z " fill="#FBFCFD" transform="translate(8,73)"/>
<path d="M0 0 C7.425 0.99 7.425 0.99 15 2 C14.34 3.32 13.68 4.64 13 6 C12.67 5.34 12.34 4.68 12 4 C10.0392215 3.77499263 8.07578556 3.55600254 6.10546875 3.44140625 C4 3 4 3 0 0 Z " fill="#02470D" transform="translate(126,126)"/>
<path d="M0 0 C1.4540625 0.0309375 1.4540625 0.0309375 2.9375 0.0625 C3.2675 1.3825 3.5975 2.7025 3.9375 4.0625 C1.6275 4.0625 -0.6825 4.0625 -3.0625 4.0625 C-3.3925 3.0725 -3.7225 2.0825 -4.0625 1.0625 C-3.0625 0.0625 -3.0625 0.0625 0 0 Z " fill="#0896C8" transform="translate(159.0625,116.9375)"/>
<path d="M0 0 C0 0.66 0 1.32 0 2 C-6.625 5 -6.625 5 -10 5 C-10 5.66 -10 6.32 -10 7 C-11.98 6.34 -13.96 5.68 -16 5 C-16 4.67 -16 4.34 -16 4 C-15.32453125 3.87882812 -14.6490625 3.75765625 -13.953125 3.6328125 C-12.61507812 3.38144531 -12.61507812 3.38144531 -11.25 3.125 C-10.36828125 2.96257812 -9.4865625 2.80015625 -8.578125 2.6328125 C-5.55556301 1.89091092 -3.084626 0 0 0 Z " fill="#024508" transform="translate(61,114)"/>
<path d="M0 0 C0.66 0.33 1.32 0.66 2 1 C0.82255415 4.53233755 0.04394359 4.86308075 -3.0625 6.6875 C-3.79597656 7.12449219 -4.52945313 7.56148437 -5.28515625 8.01171875 C-5.85105469 8.33785156 -6.41695312 8.66398437 -7 9 C-5.27845212 5.23511958 -3.00765886 2.84936103 0 0 Z " fill="#EEF4F6" transform="translate(48,31)"/>
<path d="M0 0 C0.66 0 1.32 0 2 0 C0.33333333 3.33333333 -1.33333333 6.66666667 -3 10 C-1.02 10.495 -1.02 10.495 1 11 C-0.65 11 -2.3 11 -4 11 C-4.35858439 7.14521782 -4.2754818 5.42240542 -2.125 2.125 C-1.42375 1.42375 -0.7225 0.7225 0 0 Z " fill="#CFCA21" transform="translate(113,63)"/>
<path d="M0 0 C0.66 0.66 1.32 1.32 2 2 C3.32 1.34 4.64 0.68 6 0 C5.67 0.66 5.34 1.32 5 2 C7.31 2.33 9.62 2.66 12 3 C12 3.33 12 3.66 12 4 C6.06 4.495 6.06 4.495 0 5 C0 3.35 0 1.7 0 0 Z " fill="#02390D" transform="translate(33,114)"/>
<path d="M0 0 C3.3 0 6.6 0 10 0 C8.35 1.32 6.7 2.64 5 4 C1.125 2.25 1.125 2.25 0 0 Z " fill="#015400" transform="translate(121,98)"/>
<path d="M0 0 C0.6875 1.75 0.6875 1.75 1 4 C-0.4375 6.25 -0.4375 6.25 -2 8 C-2.66 7.67 -3.32 7.34 -4 7 C-3.39816251 4.97954558 -2.72693904 2.97888961 -2 1 C-1.34 0.67 -0.68 0.34 0 0 Z " fill="#E7EBED" transform="translate(174,157)"/>
<path d="M0 0 C0.33 0.66 0.66 1.32 1 2 C1.66 2.33 2.32 2.66 3 3 C0.525 4.485 0.525 4.485 -2 6 C-2 5.01 -2 4.02 -2 3 C-3.32 2.67 -4.64 2.34 -6 2 C-4.02 1.34 -2.04 0.68 0 0 Z " fill="#1698BB" transform="translate(109,47)"/>
<path d="M0 0 C2.64 0.66 5.28 1.32 8 2 C7.01 2.495 7.01 2.495 6 3 C6.33 4.32 6.66 5.64 7 7 C5.83040013 6.02433888 4.66438823 5.044375 3.5 4.0625 C2.8503125 3.51722656 2.200625 2.97195312 1.53125 2.41015625 C1.0259375 1.94480469 0.520625 1.47945312 0 1 C0 0.67 0 0.34 0 0 Z " fill="#025215" transform="translate(59,129)"/>
<path d="M0 0 C-0.8125 1.9375 -0.8125 1.9375 -2 4 C-2.99 4.33 -3.98 4.66 -5 5 C-5 6.65 -5 8.3 -5 10 C-5.33 10 -5.66 10 -6 10 C-6.33663062 6.29706315 -6.47736015 4.60465619 -4.125 1.625 C-2 0 -2 0 0 0 Z " fill="#C0C32A" transform="translate(108,39)"/>
<path d="M0 0 C0.99 0 1.98 0 3 0 C2.67 3.3 2.34 6.6 2 10 C1.34 9.67 0.68 9.34 0 9 C0 6 0 3 0 0 Z " fill="#436176" transform="translate(99,139)"/>
<path d="M0 0 C0.33 1.32 0.66 2.64 1 4 C1.61875 4.12375 2.2375 4.2475 2.875 4.375 C5 5 5 5 7 7 C4.625 7.125 4.625 7.125 2 7 C0 5 0 5 -0.125 2.375 C-0.08375 1.59125 -0.0425 0.8075 0 0 Z " fill="#078EBC" transform="translate(32,115)"/>
<path d="M0 0 C0 1.65 0 3.3 0 5 C-0.99 5.33 -1.98 5.66 -3 6 C-3 5.01 -3 4.02 -3 3 C-3.66 2.67 -4.32 2.34 -5 2 C-2 0 -2 0 0 0 Z " fill="#149CC2" transform="translate(115,58)"/>
</svg>
